<svg width="103" height="102" viewBox="0 0 103 102" fill="none" xmlns="http://www.w3.org/2000/svg">
<path d="M51.5002 77.9769C66.399 77.9769 78.4769 65.899 78.4769 51.0002C78.4769 36.1013 66.399 24.0234 51.5002 24.0234C36.6013 24.0234 24.5234 36.1013 24.5234 51.0002C24.5234 65.899 36.6013 77.9769 51.5002 77.9769Z" stroke="#FFCE28" stroke-linecap="round" stroke-linejoin="round"/>
<path d="M3.36046 37.2791C2.19767 41.6977 1.5 46.3488 1.5 51C1.5 55.6512 2.19767 60.3023 3.36046 64.4884C4.05814 64.4884 8.47674 63.093 8.7093 58.4419C8.94186 57.0465 8.7093 52.8605 8.7093 51C8.47674 48.907 8.94186 45.186 8.7093 43.7907C8.24419 38.907 4.05814 37.2791 3.36046 37.2791ZM99.6395 37.5116C100.802 41.9302 101.5 46.3488 101.5 51.2326C101.5 55.8837 100.802 60.5349 99.6395 64.7209C98.9419 64.7209 94.5233 63.3256 94.2907 58.6744C94.0581 57.2791 94.2907 53.093 94.2907 51.2326C94.5233 49.1395 94.0581 45.4186 94.2907 44.0233C94.7558 38.907 98.9419 37.5116 99.6395 37.5116ZM64.9884 2.86046C60.8023 1.69767 56.1512 1 51.5 1C46.8488 1 42.1977 1.69767 38.0116 2.86046C38.0116 3.55814 39.407 7.97674 44.0581 8.2093C45.4535 8.44186 49.6395 8.2093 51.5 8.2093C53.593 7.97674 57.314 8.44186 58.7093 8.2093C63.593 7.74419 64.9884 3.55814 64.9884 2.86046ZM64.9884 99.1395C60.5698 100.302 56.1512 101 51.2674 101C46.6163 101 41.9651 100.302 37.7791 99.1395C37.7791 98.4419 39.1744 94.0233 43.8256 93.7907C45.2209 93.5581 49.407 93.7907 51.2674 93.7907C53.3605 94.0233 57.0814 93.5581 58.4767 93.7907C63.593 94.2558 64.9884 98.4419 64.9884 99.1395ZM27.0814 7.27907C23.1279 9.37209 19.407 12.1628 16.1512 15.6512C12.8953 18.907 10.1047 22.6279 8.01163 26.5814C8.47674 27.0465 12.6628 29.1395 16.1512 26.1163C17.314 25.186 20.1047 22.3953 21.5 20.7674C22.8953 19.3721 25.686 16.814 26.6163 15.6512C29.6395 11.9302 27.5465 7.97674 27.0814 7.27907ZM94.9884 75.4186C92.8953 79.3721 90.1046 83.093 86.6163 86.3488C83.3605 89.6046 79.6395 92.3953 75.686 94.4884C75.2209 94.0233 73.1279 89.8372 76.1512 86.3488C77.0814 85.186 79.8721 82.3953 81.5 81C82.8953 79.6047 85.4535 76.814 86.6163 75.8837C90.5698 73.093 94.5233 74.9535 94.9884 75.4186ZM75.9186 7.27907C79.8721 9.37209 83.593 12.1628 86.8488 15.6512C90.1046 18.907 92.8953 22.6279 94.9884 26.5814C94.5233 27.0465 90.3372 29.1395 86.8488 26.1163C85.686 25.186 82.8953 22.3953 81.5 20.7674C80.1047 19.3721 77.314 16.814 76.3837 15.6512C73.3605 11.9302 75.4535 7.97674 75.9186 7.27907ZM8.01163 75.4186C10.1047 79.3721 12.8953 83.093 16.3837 86.3488C19.6395 89.6046 23.3605 92.3953 27.314 94.4884C27.7791 94.0233 29.8721 89.8372 26.8488 86.3488C25.9186 85.186 23.1279 82.3953 21.5 81C20.1047 79.6047 17.5465 76.814 16.3837 75.8837C12.4302 72.8605 8.47674 74.9535 8.01163 75.4186Z" fill="#2C2E35" stroke="#2C2E35" stroke-linecap="round" stroke-linejoin="round"/>
</svg>
