<svg width="102" height="49" fill="none" xmlns="http://www.w3.org/2000/svg"><path fill-rule="evenodd" clip-rule="evenodd" d="M31.9 25.223V5.927c0-.516.194-.998.584-1.448a3.187 3.187 0 0 1 1.381-.97v-.19h-1.579c-.576 0-1.272.14-2.089.42L29.68 1h10.339c2.15 0 3.762 1.009 4.836 3.027 1.07 2.018 1.604 4.993 1.604 8.924 0 8.182-2.264 12.272-6.794 12.272H31.9zm2.854 22.587V36.484c0-.57-.195-1.04-.584-1.407-.395-.362-.883-.543-1.464-.543-.582 0-1.045.181-1.39.543-.346.368-.518.837-.518 1.407V47.81h-4.023V34.469c0-.44-.04-.806-.123-1.103a6.27 6.27 0 0 0-.28-.839H30.7l.098 1.843 1.07-1.316c.29-.351.581-.527.872-.527h3.627c.779 0 1.387.209 1.826.626.433.416.65.954.65 1.612V47.81h-4.088zm31.297 0V34.469c0-.505-.134-1.152-.403-1.942h4.59V47.81H66.05zm4.565-19.658c0 .636-.247 1.157-.74 1.562a2.616 2.616 0 0 1-1.711.609 2.68 2.68 0 0 1-1.728-.609c-.504-.405-.756-.926-.756-1.562 0-.593.252-1.094.757-1.506a2.68 2.68 0 0 1 1.727-.608c.647 0 1.217.203 1.71.608.494.412.74.913.74 1.506zM72.86 47.81V34.436c0-.614-.145-1.25-.436-1.909h4.36l.132 1.777 1.274-1.151c.406-.417.889-.626 1.448-.626h1.571c.472 0 .83.094 1.078.28.246.186.392.4.436.642l-2.082 3.002c-.158-1.037-.784-1.555-1.875-1.555-.537 0-.979.17-1.324.51-.351.346-.526.793-.526 1.341V47.81H72.86zm15.998 0c-1.047 0-1.946-.187-2.697-.56a4.747 4.747 0 0 1-1.826-1.595c-.472-.691-.82-1.533-1.045-2.525-.22-.987-.329-2.084-.329-3.29 0-1.47.134-2.698.403-3.685.269-.993.683-1.774 1.242-2.345.554-.57 1.245-.976 2.073-1.217.828-.241 1.801-.362 2.92-.362 1.009 0 1.886.132 2.632.395.751.263 1.376.691 1.875 1.283.505.593.88 1.38 1.127 2.36.247.977.37 2.167.37 3.57H87.05c.022 1.12.08 2.09.173 2.912.088.828.266 1.506.534 2.032a2.54 2.54 0 0 0 1.193 1.168c.521.252 1.242.378 2.163.378.625 0 1.675-.098 3.15-.296l.338 1.777h-5.742zm2.583-9.944c0-.483-.024-.971-.074-1.465a4.575 4.575 0 0 0-.312-1.34 2.561 2.561 0 0 0-.708-.97c-.301-.253-.699-.38-1.192-.38-.713 0-1.242.363-1.588 1.087-.35.729-.526 1.752-.526 3.068h4.4zm-32.16 9.944V36.418H52.43V47.81h-4.162c0-12.428.173-23.886.173-35.665 0-.603-.14-1.225-.42-1.867h4.187l.123 1.736 1.226-1.127c.39-.406.852-.609 1.39-.609h1.513c.45 0 .793.09 1.028.271.236.181.376.39.42.626l-1.999 2.936c-.148-1.009-.748-1.513-1.801-1.513-.516 0-.94.164-1.275.493-.335.335-.502.77-.502 1.308 0 6.58.099 12.938.099 19.543h6.852v-7.814c0-1.793.14-3.57.14-5.338v-8.694c0-.494-.198-1.045-.453-1.818h4.417c0 12.519.025 24.997.025 37.532h-4.13zM38.644 22.674c.598 0 1.125-.17 1.58-.51.45-.346.825-.905 1.127-1.678.296-.774.52-1.777.674-3.01.148-1.235.222-2.743.222-4.525 0-1.826-.101-3.361-.304-4.606-.203-1.245-.505-2.24-.905-2.986-.395-.74-.894-1.269-1.497-1.587-.598-.324-1.294-.485-2.09-.485h-1.513v19.387h2.706zM63.731 5.993c0 .62-.235 1.13-.707 1.53a2.485 2.485 0 0 1-1.645.592c-.62 0-1.17-.198-1.653-.592-.483-.4-.724-.91-.724-1.53 0-.582.241-1.07.724-1.464.482-.4 1.033-.6 1.653-.6.625 0 1.173.2 1.645.6.472.394.707.882.707 1.464zm6.054 19.23-3.8-12.79a6.044 6.044 0 0 0-.42-1.028c-.17-.345-.361-.721-.575-1.127h4.474l2.674 9.467 2.32-7.312a5.768 5.768 0 0 0 .295-1.867v-.288h2.41l-4.606 14.945h-2.772zm13.4 0c-1.01 0-1.874-.183-2.592-.55a4.579 4.579 0 0 1-1.752-1.563c-.455-.675-.79-1.495-1.003-2.46-.214-.97-.321-2.045-.321-3.224 0-1.437.129-2.64.386-3.611.258-.965.656-1.727 1.193-2.287.538-.553 1.204-.951 1.999-1.192.795-.236 1.727-.354 2.796-.354.971 0 1.816.129 2.534.387a4.097 4.097 0 0 1 1.801 1.258c.483.581.842 1.349 1.078 2.303.236.954.353 2.12.353 3.496H81.45c.022 1.097.074 2.048.156 2.854.088.8.26 1.459.518 1.974a2.46 2.46 0 0 0 1.143 1.143c.505.247 1.198.37 2.081.37.598 0 1.607-.095 3.027-.287l.321 1.743h-5.51zm2.475-9.73c0-.472-.02-.949-.058-1.431a4.355 4.355 0 0 0-.312-1.308 2.442 2.442 0 0 0-.675-.946c-.29-.247-.671-.37-1.143-.37-.685 0-1.195.353-1.53 1.06-.334.708-.502 1.706-.502 2.995h4.22zm5.865 9.73V12.145c0-.603-.14-1.225-.42-1.867h4.187l.131 1.736 1.226-1.127c.384-.406.844-.609 1.382-.609h1.513c.455 0 .801.09 1.037.271.235.181.375.39.419.626l-1.999 2.936c-.153-1.009-.756-1.513-1.81-1.513-.515 0-.937.164-1.266.493-.334.335-.502.77-.502 1.308v10.824h-3.898z" fill="#2C2E35" stroke="#2C2E35" stroke-width=".2"/><path d="M50.308 20.132h.724v-3.265h-.724v3.265zM61.576 20.132h.723v-3.265h-.723v3.265zM61.576 43.327h.723v-3.273h-.723v3.273zM62.3 47.185V43.91h-.724v3.274h.723zM50.308 47.185h.724V43.91h-.724v3.274zM50.308 16.061v.008c0 .165.05.214.214.214h.51V13.01h-.724v3.051zM61.576 16.061c0 .173.049.222.213.222h.51V13.01h-.723v3.051zM50.308 20.938v3.052h.724v-3.274h-.51c-.165 0-.214.05-.214.214v.008zM61.576 20.938v3.052h.723v-3.274h-.51c-.164 0-.213.05-.213.222zM50.308 39.256v.008c0 .165.05.214.214.214h.51v-3.274h-.724v3.052zM50.308 43.113v.009c0 .156.05.205.214.205h.51v-3.273h-.724v3.06zM50.308 35.406c0 .321.724.321.724 0v-3.06h-.724v3.06zM61.576 35.406c0 .321.723.321.723 0v-3.06h-.723v3.06zM61.576 39.256c0 .329.723.329.723 0v-3.052h-.723v3.052zM50.308 24.788v3.052h.724v-3.052c0-.32-.724-.32-.724 0zM61.576 24.788v3.052h.723v-3.052c0-.32-.723-.32-.723 0zM61.576 31.697h.723v-3.2h-.723v3.2zM62.304 11.85h-.724c0 .428-.115.592.362.592.247 0 .337-.041.362-.148v-.444zM50.308 12.064v.057c0 .346.016.305.51.305.271 0 .214-.165.214-.576h-.56c-.115.016-.164.074-.164.214zM50.308 31.697h.724v-3.2h-.724v3.2z" fill="#fff" stroke="#fff" stroke-width=".2"/><path d="M5.126 45.696c.36.158 1.062.676 1.501.94 3.485 2.089 7.971 1.904 11.474-.01l1.457-1.044-1.044-1.062c-.352.14-.826.561-1.247.79-3.002 1.65-6.733 1.712-9.745.035-.456-.255-.93-.615-1.29-.79l-1.106 1.141z" fill="#FFCE28" stroke="#2C2E35" stroke-width=".2"/><path d="m8.25 42.509-1.027 1.062c.71.948 3.546 1.703 5.144 1.695 1.94 0 4.02-.747 5.153-1.668l-1.088-1.142c-1.967 1.168-3.907 1.695-6.339.896-.746-.237-1.308-.659-1.843-.843zM11.7 35.776c-2.546.878-1.335 4.565 1.202 3.836.905-.255 1.677-1.3 1.335-2.51-.264-.896-1.335-1.739-2.537-1.326z" fill="#FFCE28" stroke="#2C2E35" stroke-width=".2"/><path d="M9.118 41.649c1.097 1.15 4.609 1.343 6.479.026l-1.107-1.141c-1.72.79-2.59.623-4.301.008L9.118 41.65z" fill="#FFCE28" stroke="#2C2E35" stroke-width=".2"/><path d="M20.511 33.502c-1.167.176-2.809-.088-4.012-.202-2.932-.272-5.706-.237-8.62.009-.73.07-1.791.202-2.73.246l-1.862.439c-.527.131-1.475.465-2.01.245-.72 3.135-.018 6.506 1.896 9.166.316.43.676.772.922 1.176.395-.184 1.036-.887 1.255-1.185-.474-.465-2.765-3.222-1.782-4.407.896-1.089 3.74.193 4.785 1.352l1.22-1.168c-.106-.483-.413-.825-.44-1.536a2.857 2.857 0 0 1 .387-1.607c1.15-2.045 4.056-1.966 5.17-.123.712 1.168.484 2.037.019 3.178l1.281 1.29c2.669-2.879 7.945-2.519 3.038 3.02.175.194.36.352.544.563.175.193.369.465.492.632.316-.097.254 0 .596-.483.5-.72.633-.65 1.3-1.87 1.483-2.686 1.817-5.776.974-8.656-.465.342-1.159.158-1.677.061l-.746-.14z" fill="#2C2E35" stroke="#2C2E35" stroke-width=".2"/><path d="M1.688 33.81c.202.132 1.317-.202 1.616-.272l3.23-.772c1.756-.369.913-1.3 1.168-2.774.184-1.098 2.59-1.194 3.424-1.326l1.176-.044c1.115.009 2.124.018 3.266.36.86.255.957.694.974 1.334.053 1.783-.123 1.94 1.773 2.257l3.231.597c1.3.254 1.8.368.667-2.01-1.387-2.924-4.126-5.172-7.234-5.944-1.51-.369-3.362-.465-4.898-.123-3.213.711-5.856 2.528-7.506 5.487-.263.483-1.466 2.862-.887 3.23z" fill="#FFCE28" stroke="#2C2E35" stroke-width=".2"/></svg>