<svg width="101" height="100" viewBox="0 0 101 100" fill="none" xmlns="http://www.w3.org/2000/svg">
<g clip-path="url(#clip0_899_1032)">
<path d="M21.5 32C9.959 32 0.5 41.43 0.5 52.94C0.5 57.4 1.924 61.545 4.335 64.952L18.938 90.196C20.983 92.868 22.343 92.361 24.044 90.056L40.15 62.646C40.475 62.056 40.73 61.43 40.953 60.79C41.9751 58.2991 42.5006 55.6325 42.5 52.94C42.5 41.43 33.044 32 21.5 32ZM21.5 41.812C27.716 41.812 32.66 46.743 32.66 52.941C32.66 59.139 27.716 64.068 21.5 64.068C15.285 64.068 10.34 59.138 10.34 52.941C10.34 46.743 15.285 41.812 21.5 41.812Z" fill="#2C2E35"/>
<path d="M88.25 0C81.518 0 76 5.501 76 12.216C76 14.817 76.83 17.235 78.237 19.222L86.756 33.948C87.949 35.506 88.742 35.21 89.734 33.866L99.129 17.876C99.319 17.533 99.468 17.168 99.597 16.794C100.193 15.3414 100.5 13.7863 100.5 12.216C100.5 5.5 94.984 0 88.25 0ZM88.25 5.724C91.876 5.724 94.76 8.6 94.76 12.216C94.76 15.831 91.876 18.706 88.25 18.706C84.625 18.706 81.74 15.831 81.74 12.216C81.74 8.6 84.625 5.724 88.25 5.724Z" fill="#2C2E35"/>
<path fill-rule="evenodd" clip-rule="evenodd" d="M88.7095 37.4121C86.4625 37.4621 84.2095 37.5571 81.9525 37.7241L82.3005 43.2561C84.4685 43.0991 86.6402 42.998 88.8135 42.9531L88.7095 37.4121ZM76.7345 38.2321C73.2645 38.6631 69.7645 39.2771 66.3045 40.2641L67.6075 45.6251C70.7515 44.7291 74.0095 44.1501 77.3185 43.7391L76.7345 38.2321ZM61.1235 42.1201C60.0868 42.5777 59.083 43.1066 58.1195 43.7031L58.1155 43.7081L58.1095 43.7101C56.7345 44.5761 55.2855 45.6751 54.1025 47.2721C53.2455 48.4291 52.5445 49.8921 52.3805 51.6221L57.4755 52.1871C57.5135 51.7811 57.7215 51.2451 58.0955 50.7411H58.0975V50.7391C58.7005 49.9231 59.6045 49.1821 60.6795 48.5041L60.6835 48.5021C61.4497 48.0292 62.2476 47.6095 63.0715 47.2461L61.1235 42.1201ZM58.5005 54.6551L55.1975 58.8901C55.9805 59.6061 56.8015 60.1561 57.5945 60.6161L57.6045 60.6211L57.6145 60.6271C60.2465 62.1241 62.9605 62.9691 65.4765 63.7711L66.9225 58.4531C64.4075 57.6511 62.0365 56.8771 60.0045 55.7231C59.4225 55.3851 58.9125 55.0321 58.5005 54.6551ZM71.8355 59.9491L70.4235 65.2761L71.0915 65.4841L71.9115 65.7461C74.6255 66.6291 77.2255 67.5721 79.5495 68.8771L81.9075 63.9571C79.0975 62.3781 76.1805 61.3461 73.3695 60.4321L73.3615 60.4301L72.5195 60.1611L71.8355 59.9491ZM86.7025 67.6491L83.0795 71.5691C83.9355 72.4961 84.5765 73.6111 84.8885 74.7631L84.8905 74.7691L84.8925 74.7781C85.2645 76.1231 85.2655 77.7051 84.9745 79.3031L89.9985 80.3751C90.4085 78.1191 90.4745 75.6421 89.8005 73.1971C89.2135 71.0351 88.0935 69.1571 86.7025 67.6491ZM83.2205 82.6431C82.6669 83.2278 82.055 83.7545 81.3945 84.2151H81.3925C79.5925 85.4811 77.5045 86.4351 75.2865 87.2551L76.9405 92.4991C79.3665 91.6021 81.8575 90.5021 84.1855 88.8641L84.1915 88.8591L84.1945 88.8571C85.1505 88.1876 86.0349 87.4212 86.8335 86.5701L83.2205 82.6431ZM70.5805 88.7321C67.3675 89.5961 64.0835 90.2541 60.7595 90.8121L61.5435 96.2911C64.9645 95.7161 68.3995 95.0291 71.8135 94.1111L70.5805 88.7321ZM55.7585 91.5681C52.4125 92.0251 49.0485 92.3981 45.6745 92.7161L46.1165 98.2381C49.5425 97.9161 52.9745 97.5371 56.4015 97.0681L55.7585 91.5681ZM40.6035 93.1511C37.2225 93.4191 33.8335 93.6371 30.4415 93.8211L30.6975 99.3571C34.1225 99.1721 37.5505 98.9511 40.9775 98.6791L40.6035 93.1511ZM25.3445 94.0711C23.3115 94.1661 21.2735 94.2441 19.2305 94.3161L19.3985 99.8571C21.4543 99.7864 23.5096 99.7044 25.5645 99.6111L25.3445 94.0711Z" fill="#FFCE28"/>
</g>
<defs>
<clipPath id="clip0_899_1032">
<rect width="100" height="100" fill="white" transform="translate(0.5)"/>
</clipPath>
</defs>
</svg>
