<svg width="101" height="120" viewBox="0 0 101 120" fill="none" xmlns="http://www.w3.org/2000/svg">
<g clip-path="url(#clip0_899_1036)">
<path opacity="0.1" d="M27.1673 19.7997L33.5273 17.1597C39.8091 14.8513 46.7292 14.9893 52.914 17.5463L62.7939 21.633C68.4978 23.9908 74.8429 24.2971 80.7473 22.4997L86.7006 20.693C88.2982 20.208 89.9871 20.1037 91.6321 20.3886C93.2772 20.6736 94.8327 21.3397 96.174 22.3337C97.5154 23.3278 98.6054 24.6221 99.3567 26.113C100.108 27.604 100.5 29.2501 100.501 30.9197V57.9997C100.501 61.833 99.4745 65.5963 97.5284 68.8989C95.5822 72.2014 92.7873 74.9226 89.434 76.7797L84.5406 79.493C80.5833 81.6877 76.1325 82.8393 71.6073 82.8393C67.0821 82.8393 62.6313 81.6877 58.6739 79.493L55.6539 77.8197C51.6966 75.625 47.2458 74.4734 42.7206 74.4734C38.1954 74.4734 33.7446 75.625 29.7873 77.8197L28.2806 78.6597C27.914 78.8597 27.5473 79.033 27.1673 79.1863V113.333C27.1673 115.101 26.4649 116.797 25.2147 118.047C23.9644 119.298 22.2687 120 20.5006 120C18.7325 120 17.0368 119.298 15.7866 118.047C14.5363 116.797 13.834 115.101 13.834 113.333V19.9997C13.834 18.2316 14.5363 16.5359 15.7866 15.2856C17.0368 14.0354 18.7325 13.333 20.5006 13.333C25.9006 13.333 27.1673 19.7997 27.1673 19.7997Z" fill="#2C2E35"/>
<path fill-rule="evenodd" clip-rule="evenodd" d="M19.1933 4.21299L14.9467 5.97299C10.6709 7.74085 7.01589 10.7376 4.44421 14.5838C1.87253 18.4301 0.499871 22.9529 0.5 27.5797V56.8197C0.501623 58.5125 0.944726 60.1757 1.78556 61.6449C2.62639 63.1142 3.83588 64.3387 5.29461 65.1976C6.75335 66.0566 8.41088 66.5202 10.1036 66.5428C11.7962 66.5654 13.4656 66.1461 14.9467 65.3263L16.46 64.4863C20.4174 62.2916 24.8681 61.1401 29.3933 61.1401C33.9185 61.1401 38.3693 62.2916 42.3267 64.4863L45.3467 66.1597C49.304 68.3544 53.7548 69.506 58.28 69.506C62.8052 69.506 67.256 68.3544 71.2133 66.1597L76.1067 63.4463C79.4579 61.5873 82.2507 58.8655 84.1954 55.5633C86.1402 52.261 87.1661 48.4987 87.1667 44.6663V17.5863C87.1644 15.9173 86.7717 14.2719 86.02 12.7817C85.2683 11.2915 84.1784 9.99777 82.8374 9.00401C81.4964 8.01026 79.9415 7.34399 78.2971 7.05847C76.6526 6.77295 74.9642 6.8761 73.3667 7.35966L67.4133 9.17299C61.5069 10.972 55.1591 10.6657 49.4533 8.30633L39.5867 4.21299C33.0574 1.51103 25.7226 1.51103 19.1933 4.21299ZM7.16667 27.5797C7.16667 20.8197 11.24 14.7197 17.4933 12.133L21.7467 10.373C26.6412 8.34882 32.1388 8.34882 37.0333 10.373L46.9067 14.4597C54.0375 17.4092 61.9709 17.7933 69.3533 15.5463L75.3067 13.7397C75.9077 13.5577 76.5429 13.5189 77.1617 13.6262C77.7804 13.7336 78.3654 13.9841 78.87 14.3579C79.3746 14.7317 79.7848 15.2183 80.0679 15.7788C80.3509 16.3394 80.4989 16.9584 80.5 17.5863V44.6663C80.5 50.0463 77.58 55.0063 72.8733 57.6197L67.9733 60.333C65.0053 61.9791 61.6672 62.8427 58.2733 62.8427C54.8794 62.8427 51.5414 61.9791 48.5733 60.333L45.5533 58.653C40.6066 55.9096 35.0432 54.4701 29.3867 54.4701C23.7302 54.4701 18.1667 55.9096 13.22 58.653L11.7133 59.493C11.2473 59.7498 10.7226 59.8809 10.1905 59.8735C9.65853 59.8661 9.13761 59.7204 8.67896 59.4507C8.2203 59.181 7.8397 58.7966 7.57456 58.3354C7.30941 57.8741 7.16884 57.3517 7.16667 56.8197V27.5797Z" fill="#FFCE28"/>
<path fill-rule="evenodd" clip-rule="evenodd" d="M7.16667 0C8.93478 0 10.6305 0.702379 11.8807 1.95262C13.131 3.20286 13.8333 4.89856 13.8333 6.66667V100C13.8333 101.768 13.131 103.464 11.8807 104.714C10.6305 105.964 8.93478 106.667 7.16667 106.667C5.39856 106.667 3.70287 105.964 2.45262 104.714C1.20238 103.464 0.5 101.768 0.5 100V6.66667C0.5 4.89856 1.20238 3.20286 2.45262 1.95262C3.70287 0.702379 5.39856 0 7.16667 0Z" fill="#2C2E35"/>
</g>
<defs>
<clipPath id="clip0_899_1036">
<rect width="100" height="120" fill="white" transform="translate(0.5)"/>
</clipPath>
</defs>
</svg>
