<svg width="104" height="108" viewBox="0 0 104 108" fill="none" xmlns="http://www.w3.org/2000/svg">
<g clip-path="url(#clip0_899_1040)">
<path d="M94.6613 59.8169H84.1328L68.2392 43.9233C67.696 43.3757 67.0493 42.9415 66.3368 42.6461C65.6243 42.3506 64.8601 42.1997 64.0888 42.2022H22.8374C21.873 42.204 20.9238 42.4433 20.0739 42.899C19.2239 43.3547 18.4993 44.0128 17.964 44.815L7.07963 61.1233C6.75982 61.6066 6.58885 62.1731 6.58789 62.7526V80.3673C6.58789 81.9245 7.2065 83.418 8.30763 84.5191C9.40876 85.6203 10.9022 86.2389 12.4594 86.2389H18.6979C19.3447 88.7649 20.8138 91.0038 22.8735 92.6026C24.9333 94.2014 27.4666 95.0692 30.0741 95.0692C32.6816 95.0692 35.2149 94.2014 37.2747 92.6026C39.3344 91.0038 40.8035 88.7649 41.4502 86.2389H65.6704C66.3172 88.7649 67.7862 91.0038 69.846 92.6026C71.9058 94.2014 74.4391 95.0692 77.0466 95.0692C79.654 95.0692 82.1874 94.2014 84.2471 92.6026C86.3069 91.0038 87.776 88.7649 88.4227 86.2389H94.6613C96.2185 86.2389 97.7119 85.6203 98.8131 84.5191C99.9142 83.418 100.533 81.9245 100.533 80.3673V65.6884C100.533 64.1312 99.9142 62.6377 98.8131 61.5366C97.7119 60.4355 96.2185 59.8169 94.6613 59.8169ZM22.8374 48.0737H64.0888L75.8319 59.8169H15.0282L22.8374 48.0737ZM30.0741 89.1747C28.9128 89.1747 27.7776 88.8303 26.812 88.1851C25.8465 87.5399 25.0939 86.6229 24.6495 85.55C24.2051 84.4772 24.0888 83.2966 24.3154 82.1576C24.5419 81.0186 25.1011 79.9724 25.9223 79.1513C26.7434 78.3301 27.7896 77.7709 28.9286 77.5444C30.0676 77.3178 31.2482 77.4341 32.321 77.8785C33.3939 78.3229 34.3109 79.0755 34.9561 80.041C35.6013 81.0066 35.9457 82.1418 35.9457 83.3031C35.9457 84.8603 35.327 86.3538 34.2259 87.4549C33.1248 88.556 31.6313 89.1747 30.0741 89.1747ZM77.0466 89.1747C75.8853 89.1747 74.7501 88.8303 73.7845 88.1851C72.8189 87.5399 72.0664 86.6229 71.622 85.55C71.1776 84.4772 71.0613 83.2966 71.2878 82.1576C71.5144 81.0186 72.0736 79.9724 72.8948 79.1513C73.7159 78.3301 74.7621 77.7709 75.9011 77.5444C77.0401 77.3178 78.2206 77.4341 79.2935 77.8785C80.3664 78.3229 81.2834 79.0755 81.9286 80.041C82.5738 81.0066 82.9181 82.1418 82.9181 83.3031C82.9181 84.8603 82.2995 86.3538 81.1984 87.4549C80.0973 88.556 78.6038 89.1747 77.0466 89.1747Z" fill="#2C2E35" fill-opacity="0.1"/>
<path d="M82.6777 61.6381L82.8242 61.7846H83.0313H93.5597C94.9844 61.7846 96.3506 62.3505 97.358 63.3579C98.3653 64.3652 98.9313 65.7315 98.9313 67.1561V81.8351C98.9313 83.2597 98.3653 84.6261 97.358 85.6334C96.3506 86.6408 94.9844 87.2066 93.5597 87.2066H87.3212H86.9331L86.8368 87.5826C86.2176 90.001 84.8111 92.1447 82.839 93.6754C80.8669 95.2062 78.4415 96.037 75.945 96.037C73.4486 96.037 71.0231 95.2062 69.0511 93.6754C67.079 92.1447 65.6725 90.001 65.0533 87.5826L64.957 87.2066H64.5689H40.3487H39.9606L39.8643 87.5826C39.2451 90.001 37.8386 92.1447 35.8665 93.6754C33.8945 95.2062 31.469 96.037 28.9726 96.037C26.4761 96.037 24.0507 95.2062 22.0786 93.6754C20.1065 92.1447 18.7 90.001 18.0808 87.5826L17.9845 87.2066H17.5964H11.3579C9.93326 87.2066 8.56698 86.6408 7.55962 85.6334C6.55226 84.6261 5.98633 83.2597 5.98633 81.8351V64.2208C5.9872 63.7395 6.12915 63.269 6.39461 62.8676C6.39446 62.8678 6.39476 62.8674 6.39461 62.8676L17.2784 46.5603C17.7681 45.8263 18.431 45.2243 19.2086 44.8074C19.9861 44.3906 20.8542 44.1716 21.7364 44.1699H62.9872H62.9888C63.6939 44.1677 64.3924 44.3056 65.0437 44.5757C65.695 44.8457 66.2862 45.2426 66.7827 45.7432L66.7841 45.7446L82.6777 61.6381ZM21.7359 49.0415H21.4679L21.3195 49.2646L13.5104 61.0077L12.9937 61.7846H13.9267H74.7304H75.9375L75.0839 60.931L63.3408 49.1879L63.1944 49.0415H62.9872H21.7359ZM25.4327 90.0686C26.4805 90.7687 27.7124 91.1424 28.9726 91.1424C30.6624 91.1424 32.283 90.4711 33.4779 89.2762C34.6728 88.0813 35.3441 86.4607 35.3441 84.7708C35.3441 83.5107 34.9704 82.2788 34.2703 81.231C33.5702 80.1832 32.5751 79.3665 31.4109 78.8843C30.2466 78.402 28.9655 78.2759 27.7295 78.5217C26.4936 78.7675 25.3583 79.3744 24.4672 80.2655C23.5761 81.1565 22.9693 82.2919 22.7234 83.5279C22.4776 84.7639 22.6038 86.0449 23.086 87.2091C23.5683 88.3734 24.3849 89.3685 25.4327 90.0686ZM72.4052 90.0686C73.453 90.7687 74.6849 91.1424 75.945 91.1424C77.6349 91.1424 79.2555 90.4711 80.4504 89.2762C81.6453 88.0813 82.3166 86.4607 82.3166 84.7708C82.3166 83.5107 81.9429 82.2788 81.2428 81.231C80.5427 80.1832 79.5476 79.3665 78.3833 78.8843C77.2191 78.402 75.938 78.2759 74.702 78.5217C73.466 78.7675 72.3307 79.3744 71.4397 80.2655C70.5486 81.1565 69.9418 82.2919 69.6959 83.5279C69.4501 84.7639 69.5762 86.0449 70.0585 87.2091C70.5407 88.3734 71.3574 89.3685 72.4052 90.0686Z" fill="#2C2E35"/>
<path d="M6.39461 62.8676C6.12915 63.269 5.9872 63.7395 5.98633 64.2208V81.8351C5.98633 83.2597 6.55226 84.6261 7.55962 85.6334C8.56698 86.6408 9.93326 87.2066 11.3579 87.2066H17.5964H17.9845L18.0808 87.5826C18.7 90.001 20.1065 92.1447 22.0786 93.6754C24.0507 95.2062 26.4761 96.037 28.9726 96.037C31.469 96.037 33.8945 95.2062 35.8665 93.6754C37.8386 92.1447 39.2451 90.001 39.8643 87.5826L39.9606 87.2066H40.3487H64.5689H64.957L65.0533 87.5826C65.6725 90.001 67.079 92.1447 69.0511 93.6754C71.0231 95.2062 73.4486 96.037 75.945 96.037C78.4415 96.037 80.8669 95.2062 82.839 93.6754C84.8111 92.1447 86.2176 90.001 86.8368 87.5826L86.9331 87.2066H87.3212H93.5597C94.9844 87.2066 96.3506 86.6408 97.358 85.6334C98.3653 84.6261 98.9313 83.2597 98.9313 81.8351V67.1561C98.9313 65.7315 98.3653 64.3652 97.358 63.3579C96.3506 62.3505 94.9844 61.7846 93.5597 61.7846H83.0313H82.8242L82.6777 61.6381L66.7841 45.7446L66.7827 45.7432C66.2862 45.2426 65.695 44.8457 65.0437 44.5757C64.3924 44.3056 63.6939 44.1677 62.9888 44.1699H62.9872H21.7364C20.8542 44.1716 19.9861 44.3906 19.2086 44.8074C18.431 45.2243 17.7681 45.8263 17.2784 46.5603L6.39461 62.8676ZM6.39461 62.8676C6.39476 62.8674 6.39446 62.8678 6.39461 62.8676ZM21.7359 49.0415H21.4679L21.3195 49.2646L13.5104 61.0077L12.9937 61.7846H13.9267H74.7304H75.9375L75.0839 60.931L63.3408 49.1879L63.1944 49.0415H62.9872H21.7359ZM25.4327 90.0686C26.4805 90.7687 27.7124 91.1424 28.9726 91.1424C30.6624 91.1424 32.283 90.4711 33.4779 89.2762C34.6728 88.0813 35.3441 86.4607 35.3441 84.7708C35.3441 83.5107 34.9704 82.2788 34.2703 81.231C33.5702 80.1832 32.5751 79.3665 31.4109 78.8843C30.2466 78.402 28.9655 78.2759 27.7295 78.5217C26.4936 78.7675 25.3583 79.3744 24.4672 80.2655C23.5761 81.1565 22.9693 82.2919 22.7234 83.5279C22.4776 84.7639 22.6038 86.0449 23.086 87.2091C23.5683 88.3734 24.3849 89.3685 25.4327 90.0686ZM72.4052 90.0686C73.453 90.7687 74.6849 91.1424 75.945 91.1424C77.6349 91.1424 79.2555 90.4711 80.4504 89.2762C81.6453 88.0813 82.3166 86.4607 82.3166 84.7708C82.3166 83.5107 81.9429 82.2788 81.2428 81.231C80.5427 80.1832 79.5476 79.3665 78.3833 78.8843C77.2191 78.402 75.938 78.2759 74.702 78.5217C73.466 78.7675 72.3307 79.3744 71.4397 80.2655C70.5486 81.1565 69.9418 82.2919 69.6959 83.5279C69.4501 84.7639 69.5762 86.0449 70.0585 87.2091C70.5407 88.3734 71.3574 89.3685 72.4052 90.0686Z" stroke="#CDD3D6"/>
<path fill-rule="evenodd" clip-rule="evenodd" d="M81.4494 7.59896C81.4494 9.88814 79.572 11.7436 77.2557 11.7436H73.0083C72.3384 10.851 71.9556 9.77581 71.9107 8.66067C71.8657 7.54553 72.1609 6.44307 72.7569 5.4995C73.3529 4.55593 74.2216 3.81581 75.2479 3.37729C76.2742 2.93878 77.4095 2.82258 78.5034 3.0441C78.5614 3.25034 78.6032 3.46318 78.6282 3.68116C80.2693 4.24263 81.4494 5.78465 81.4494 7.59896Z" fill="#FFCE28"/>
<path d="M74.4603 0C72.1439 0 70.2665 1.85541 70.2665 4.14459C70.2665 4.65101 70.3582 5.13541 70.5263 5.58459C70.3256 5.54556 70.1216 5.5259 69.9171 5.52587C68.1799 5.52661 66.7715 6.91817 66.7715 8.63486C66.7715 10.3516 68.1799 11.7431 69.9171 11.7431H73.0092C72.3393 10.8505 71.9565 9.77538 71.9116 8.66024C71.8667 7.5451 72.1618 6.44264 72.7578 5.49907C73.3538 4.5555 74.2225 3.81538 75.2488 3.37686C76.2751 2.93835 77.4105 2.82215 78.5043 3.04367C78.4936 3.00484 78.4824 2.96618 78.4705 2.92771C77.945 1.23303 76.348 0 74.4603 0Z" fill="#2C2E35"/>
<path d="M22.7337 7.39165L21.1348 6.79925C20.9985 6.19636 20.6577 5.85036 20.6577 5.85036C20.4537 5.64598 20.2114 5.48383 19.9447 5.37319C19.678 5.26256 19.3921 5.20561 19.1033 5.20561C18.8146 5.20561 18.5286 5.26256 18.2619 5.37319C17.9952 5.48383 17.7529 5.64598 17.5489 5.85036L16.773 6.62625L13.2973 2.93555C12.773 5.03254 13.2973 7.12952 14.5817 8.8176L11.7246 11.5857C11.7246 11.5857 16.3851 12.6341 19.1007 10.511C20.5476 9.37854 20.8727 8.71799 21.0771 8.02074L22.7337 7.39165ZM19.9605 7.50698C19.756 7.71144 19.4205 7.71144 19.216 7.50698C19.1674 7.45848 19.1289 7.40087 19.1026 7.33745C19.0763 7.27403 19.0627 7.20605 19.0627 7.13739C19.0627 7.06873 19.0763 7.00074 19.1026 6.93732C19.1289 6.8739 19.1674 6.81629 19.216 6.76779C19.4205 6.56334 19.756 6.56334 19.9605 6.76779C20.1649 6.97225 20.1649 7.30252 19.9605 7.50698Z" fill="#2C2E35"/>
<path d="M49.2764 14.2483C49.2764 13.1946 48.8579 12.1841 48.1128 11.439C47.3677 10.694 46.3572 10.2754 45.3035 10.2754C44.2499 10.2754 43.2394 10.694 42.4943 11.439C41.7492 12.1841 41.3307 13.1946 41.3307 14.2483M55.8979 28.8155H34.7092V28.5811L34.9767 26.7999C35.5022 23.3076 35.5022 19.7562 34.9767 16.2639L34.7092 14.4814V14.2483H55.8979V14.4814L55.6291 16.2639C55.1038 19.7562 55.1038 23.3075 55.6291 26.7999L55.8979 28.5811V28.8155ZM57.2222 34.1127H33.3849C32.5069 34.1127 31.6648 34.4615 31.0439 35.0824C30.423 35.7032 30.0742 36.5453 30.0742 37.4234C30.0742 38.3015 30.423 39.1436 31.0439 39.7644C31.6648 40.3853 32.5069 40.7341 33.3849 40.7341H57.2222C58.1002 40.7341 58.9423 40.3853 59.5632 39.7644C60.1841 39.1436 60.5329 38.3015 60.5329 37.4234C60.5329 36.5453 60.1841 35.7032 59.5632 35.0824C58.9423 34.4615 58.1002 34.1127 57.2222 34.1127Z" fill="#FFCE28"/>
<path d="M40.0064 14.2483V28.8155M50.6007 14.2483V28.8155M49.2764 14.2483C49.2764 13.1946 48.8579 12.1841 48.1128 11.439C47.3677 10.694 46.3572 10.2754 45.3035 10.2754C44.2499 10.2754 43.2394 10.694 42.4943 11.439C41.7492 12.1841 41.3307 13.1946 41.3307 14.2483M34.7092 37.4234H36.0335M41.3307 37.4234H42.655M47.9521 37.4234H49.2764M54.5736 37.4234H55.8979M55.8979 28.8155H34.7092V28.5811L34.9767 26.7999C35.5022 23.3076 35.5022 19.7562 34.9767 16.2639L34.7092 14.4814V14.2483H55.8979V14.4814L55.6291 16.2639C55.1038 19.7562 55.1038 23.3075 55.6291 26.7999L55.8979 28.5811V28.8155ZM57.2222 34.1127H33.3849C32.5069 34.1127 31.6648 34.4615 31.0439 35.0824C30.423 35.7032 30.0742 36.5453 30.0742 37.4234C30.0742 38.3015 30.423 39.1436 31.0439 39.7644C31.6648 40.3853 32.5069 40.7341 33.3849 40.7341H57.2222C58.1002 40.7341 58.9423 40.3853 59.5632 39.7644C60.1841 39.1436 60.5329 38.3015 60.5329 37.4234C60.5329 36.5453 60.1841 35.7032 59.5632 35.0824C58.9423 34.4615 58.1002 34.1127 57.2222 34.1127Z" stroke="#2C2E35"/>
<path d="M2 106.422H9.33945" stroke="#2C2E35" stroke-width="3" stroke-linecap="round"/>
<path d="M15.3945 106.422H22.734" stroke="#2C2E35" stroke-width="3" stroke-linecap="round"/>
<path d="M28.6055 106.422H35.9449" stroke="#2C2E35" stroke-width="3" stroke-linecap="round"/>
<path d="M41.8164 106.422H49.1559" stroke="#2C2E35" stroke-width="3" stroke-linecap="round"/>
<path d="M55.0273 106.422H62.3667" stroke="#2C2E35" stroke-width="3" stroke-linecap="round"/>
<path d="M68.2383 106.422H75.5778" stroke="#2C2E35" stroke-width="3" stroke-linecap="round"/>
<path d="M81.4492 106.422H88.7886" stroke="#2C2E35" stroke-width="3" stroke-linecap="round"/>
<path d="M94.6602 106.422H102" stroke="#2C2E35" stroke-width="3" stroke-linecap="round"/>
</g>
<defs>
<clipPath id="clip0_899_1040">
<rect width="103" height="108" fill="white" transform="translate(0.5)"/>
</clipPath>
</defs>
</svg>
